<svg width="76" height="21" viewBox="0 0 76 21" fill="none" xmlns="http://www.w3.org/2000/svg">
<path d="M0.986172 7.96C0.986172 6.57333 1.28617 5.34 1.88617 4.26C2.48617 3.16667 3.31951 2.32 4.38617 1.72C5.46617 1.10667 6.68617 0.799999 8.04617 0.799999C9.71284 0.799999 11.1395 1.24 12.3262 2.12C13.5128 3 14.3062 4.2 14.7062 5.72H10.9462C10.6662 5.13333 10.2662 4.68667 9.74617 4.38C9.23951 4.07333 8.65951 3.92 8.00617 3.92C6.95284 3.92 6.09951 4.28667 5.44617 5.02C4.79284 5.75333 4.46617 6.73333 4.46617 7.96C4.46617 9.18667 4.79284 10.1667 5.44617 10.9C6.09951 11.6333 6.95284 12 8.00617 12C8.65951 12 9.23951 11.8467 9.74617 11.54C10.2662 11.2333 10.6662 10.7867 10.9462 10.2H14.7062C14.3062 11.72 13.5128 12.92 12.3262 13.8C11.1395 14.6667 9.71284 15.1 8.04617 15.1C6.68617 15.1 5.46617 14.8 4.38617 14.2C3.31951 13.5867 2.48617 12.74 1.88617 11.66C1.28617 10.58 0.986172 9.34667 0.986172 7.96ZM23.9605 15L21.0405 9.7H20.2205V15H16.8005V0.96H22.5405C23.6472 0.96 24.5872 1.15333 25.3605 1.54C26.1472 1.92667 26.7339 2.46 27.1205 3.14C27.5072 3.80667 27.7005 4.55333 27.7005 5.38C27.7005 6.31333 27.4339 7.14667 26.9005 7.88C26.3805 8.61333 25.6072 9.13333 24.5805 9.44L27.8205 15H23.9605ZM20.2205 7.28H22.3405C22.9672 7.28 23.4339 7.12667 23.7405 6.82C24.0605 6.51333 24.2205 6.08 24.2205 5.52C24.2205 4.98667 24.0605 4.56667 23.7405 4.26C23.4339 3.95333 22.9672 3.8 22.3405 3.8H20.2205V7.28ZM33.2674 3.7V6.54H37.8474V9.18H33.2674V12.26H38.4474V15H29.8474V0.96H38.4474V3.7H33.2674ZM45.9277 0.96C47.4077 0.96 48.7011 1.25333 49.8077 1.84C50.9144 2.42667 51.7677 3.25333 52.3677 4.32C52.9811 5.37333 53.2877 6.59333 53.2877 7.98C53.2877 9.35333 52.9811 10.5733 52.3677 11.64C51.7677 12.7067 50.9077 13.5333 49.7877 14.12C48.6811 14.7067 47.3944 15 45.9277 15H40.6677V0.96H45.9277ZM45.7077 12.04C47.0011 12.04 48.0077 11.6867 48.7277 10.98C49.4477 10.2733 49.8077 9.27333 49.8077 7.98C49.8077 6.68667 49.4477 5.68 48.7277 4.96C48.0077 4.24 47.0011 3.88 45.7077 3.88H44.0877V12.04H45.7077ZM58.619 0.96V15H55.199V0.96H58.619ZM71.1974 0.96V3.7H67.4774V15H64.0574V3.7H60.3374V0.96H71.1974Z" fill="#858585"/>
<line y1="20.5" x2="76" y2="20.5" stroke="#858585"/>
</svg>
