<svg width="66" height="21" viewBox="0 0 66 21" fill="none" xmlns="http://www.w3.org/2000/svg">
<path d="M10.875 0.96C12.355 0.96 13.6483 1.25333 14.755 1.84C15.8617 2.42667 16.715 3.25333 17.315 4.32C17.9283 5.37333 18.235 6.59333 18.235 7.98C18.235 9.35333 17.9283 10.5733 17.315 11.64C16.715 12.7067 15.855 13.5333 14.735 14.12C13.6283 14.7067 12.3417 15 10.875 15H5.615V0.96H10.875ZM10.655 12.04C11.9483 12.04 12.955 11.6867 13.675 10.98C14.395 10.2733 14.755 9.27333 14.755 7.98C14.755 6.68667 14.395 5.68 13.675 4.96C12.955 4.24 11.9483 3.88 10.655 3.88H9.035V12.04H10.655ZM23.5663 3.7V6.54H28.1463V9.18H23.5663V12.26H28.7463V15H20.1463V0.96H28.7463V3.7H23.5663ZM39.4666 7.8C40.2799 7.97333 40.9332 8.38 41.4266 9.02C41.9199 9.64667 42.1666 10.3667 42.1666 11.18C42.1666 12.3533 41.7532 13.2867 40.9266 13.98C40.1132 14.66 38.9732 15 37.5066 15H30.9666V0.96H37.2866C38.7132 0.96 39.8266 1.28667 40.6266 1.94C41.4399 2.59333 41.8466 3.48 41.8466 4.6C41.8466 5.42667 41.6266 6.11333 41.1866 6.66C40.7599 7.20667 40.1866 7.58667 39.4666 7.8ZM34.3866 6.64H36.6266C37.1866 6.64 37.6132 6.52 37.9066 6.28C38.2132 6.02667 38.3666 5.66 38.3666 5.18C38.3666 4.7 38.2132 4.33333 37.9066 4.08C37.6132 3.82667 37.1866 3.7 36.6266 3.7H34.3866V6.64ZM36.9066 12.24C37.4799 12.24 37.9199 12.1133 38.2266 11.86C38.5466 11.5933 38.7066 11.2133 38.7066 10.72C38.7066 10.2267 38.5399 9.84 38.2066 9.56C37.8866 9.28 37.4399 9.14 36.8666 9.14H34.3866V12.24H36.9066ZM47.5702 0.96V15H44.1502V0.96H47.5702ZM60.1486 0.96V3.7H56.4286V15H53.0086V3.7H49.2886V0.96H60.1486Z" fill="#858585"/>
<line y1="20.5" x2="66" y2="20.5" stroke="#858585"/>
</svg>
