<svg width="102" height="21" viewBox="0 0 102 21" fill="none" xmlns="http://www.w3.org/2000/svg">
<path d="M19.1927 0.96V15H15.7727V6.58L12.6327 15H9.87274L6.71273 6.56V15H3.29273V0.96H7.33273L11.2727 10.68L15.1727 0.96H19.1927ZM25.0721 3.7V6.54H29.6521V9.18H25.0721V12.26H30.2521V15H21.6521V0.96H30.2521V3.7H25.0721ZM48.3724 0.96V15H44.9524V6.58L41.8124 15H39.0524L35.8924 6.56V15H32.4724V0.96H36.5124L40.4524 10.68L44.3524 0.96H48.3724ZM59.3318 7.8C60.1451 7.97333 60.7985 8.38 61.2918 9.02C61.7851 9.64667 62.0318 10.3667 62.0318 11.18C62.0318 12.3533 61.6185 13.2867 60.7918 13.98C59.9785 14.66 58.8385 15 57.3718 15H50.8318V0.96H57.1518C58.5785 0.96 59.6918 1.28667 60.4918 1.94C61.3051 2.59333 61.7118 3.48 61.7118 4.6C61.7118 5.42667 61.4918 6.11333 61.0518 6.66C60.6251 7.20667 60.0518 7.58667 59.3318 7.8ZM54.2518 6.64H56.4918C57.0518 6.64 57.4785 6.52 57.7718 6.28C58.0785 6.02667 58.2318 5.66 58.2318 5.18C58.2318 4.7 58.0785 4.33333 57.7718 4.08C57.4785 3.82667 57.0518 3.7 56.4918 3.7H54.2518V6.64ZM56.7718 12.24C57.3451 12.24 57.7851 12.1133 58.0918 11.86C58.4118 11.5933 58.5718 11.2133 58.5718 10.72C58.5718 10.2267 58.4051 9.84 58.0718 9.56C57.7518 9.28 57.3051 9.14 56.7318 9.14H54.2518V12.24H56.7718ZM67.4354 3.7V6.54H72.0154V9.18H67.4354V12.26H72.6154V15H64.0154V0.96H72.6154V3.7H67.4354ZM81.9957 15L79.0757 9.7H78.2557V15H74.8357V0.96H80.5757C81.6824 0.96 82.6224 1.15333 83.3957 1.54C84.1824 1.92667 84.769 2.46 85.1557 3.14C85.5424 3.80667 85.7357 4.55333 85.7357 5.38C85.7357 6.31333 85.469 7.14667 84.9357 7.88C84.4157 8.61333 83.6424 9.13333 82.6157 9.44L85.8557 15H81.9957ZM78.2557 7.28H80.3757C81.0024 7.28 81.469 7.12667 81.7757 6.82C82.0957 6.51333 82.2557 6.08 82.2557 5.52C82.2557 4.98667 82.0957 4.56667 81.7757 4.26C81.469 3.95333 81.0024 3.8 80.3757 3.8H78.2557V7.28ZM92.9626 15.14C91.9359 15.14 91.0159 14.9733 90.2026 14.64C89.3892 14.3067 88.7359 13.8133 88.2426 13.16C87.7626 12.5067 87.5092 11.72 87.4826 10.8H91.1226C91.1759 11.32 91.3559 11.72 91.6626 12C91.9692 12.2667 92.3692 12.4 92.8626 12.4C93.3692 12.4 93.7692 12.2867 94.0626 12.06C94.3559 11.82 94.5026 11.4933 94.5026 11.08C94.5026 10.7333 94.3826 10.4467 94.1426 10.22C93.9159 9.99333 93.6292 9.80667 93.2826 9.66C92.9492 9.51333 92.4692 9.34667 91.8426 9.16C90.9359 8.88 90.1959 8.6 89.6226 8.32C89.0492 8.04 88.5559 7.62667 88.1426 7.08C87.7292 6.53333 87.5226 5.82 87.5226 4.94C87.5226 3.63333 87.9959 2.61333 88.9426 1.88C89.8892 1.13333 91.1226 0.76 92.6426 0.76C94.1892 0.76 95.4359 1.13333 96.3826 1.88C97.3292 2.61333 97.8359 3.64 97.9026 4.96H94.2026C94.1759 4.50667 94.0092 4.15333 93.7026 3.9C93.3959 3.63333 93.0026 3.5 92.5226 3.5C92.1092 3.5 91.7759 3.61333 91.5226 3.84C91.2692 4.05333 91.1426 4.36667 91.1426 4.78C91.1426 5.23333 91.3559 5.58667 91.7826 5.84C92.2092 6.09333 92.8759 6.36667 93.7826 6.66C94.6892 6.96667 95.4226 7.26 95.9826 7.54C96.5559 7.82 97.0492 8.22667 97.4626 8.76C97.8759 9.29333 98.0826 9.98 98.0826 10.82C98.0826 11.62 97.8759 12.3467 97.4626 13C97.0626 13.6533 96.4759 14.1733 95.7026 14.56C94.9292 14.9467 94.0159 15.14 92.9626 15.14Z" fill="#858585"/>
<line y1="20.5" x2="102" y2="20.5" stroke="#858585"/>
</svg>
