<svg width="86" height="21" viewBox="0 0 86 21" fill="none" xmlns="http://www.w3.org/2000/svg">
<path d="M13.272 5.48C13.272 6.29333 13.0854 7.04 12.712 7.72C12.3387 8.38667 11.7654 8.92667 10.992 9.34C10.2187 9.75333 9.2587 9.96 8.11203 9.96H5.99203V15H2.57203V0.96H8.11203C9.23203 0.96 10.1787 1.15333 10.952 1.54C11.7254 1.92667 12.3054 2.46 12.692 3.14C13.0787 3.82 13.272 4.6 13.272 5.48ZM7.85203 7.24C8.50537 7.24 8.99203 7.08667 9.31203 6.78C9.63203 6.47333 9.79203 6.04 9.79203 5.48C9.79203 4.92 9.63203 4.48667 9.31203 4.18C8.99203 3.87333 8.50537 3.72 7.85203 3.72H5.99203V7.24H7.85203ZM23.7925 12.52H18.5525L17.7125 15H14.1325L19.2125 0.96H23.1725L28.2525 15H24.6325L23.7925 12.52ZM22.9125 9.88L21.1725 4.74L19.4525 9.88H22.9125ZM41.8386 0.96L36.9786 10.36V15H33.5586V10.36L28.6986 0.96H32.5786L35.2986 6.84L37.9986 0.96H41.8386ZM52.7148 0.96C54.1948 0.96 55.4882 1.25333 56.5948 1.84C57.7015 2.42667 58.5548 3.25333 59.1548 4.32C59.7682 5.37333 60.0748 6.59333 60.0748 7.98C60.0748 9.35333 59.7682 10.5733 59.1548 11.64C58.5548 12.7067 57.6948 13.5333 56.5748 14.12C55.4682 14.7067 54.1815 15 52.7148 15H47.4548V0.96H52.7148ZM52.4948 12.04C53.7882 12.04 54.7948 11.6867 55.5148 10.98C56.2348 10.2733 56.5948 9.27333 56.5948 7.98C56.5948 6.68667 56.2348 5.68 55.5148 4.96C54.7948 4.24 53.7882 3.88 52.4948 3.88H50.8748V12.04H52.4948ZM65.3461 0.96V9.36C65.3461 10.2 65.5528 10.8467 65.9661 11.3C66.3794 11.7533 66.9861 11.98 67.7861 11.98C68.5861 11.98 69.1994 11.7533 69.6261 11.3C70.0528 10.8467 70.2661 10.2 70.2661 9.36V0.96H73.6861V9.34C73.6861 10.5933 73.4194 11.6533 72.8861 12.52C72.3528 13.3867 71.6328 14.04 70.7261 14.48C69.8328 14.92 68.8328 15.14 67.7261 15.14C66.6194 15.14 65.6261 14.9267 64.7461 14.5C63.8794 14.06 63.1928 13.4067 62.6861 12.54C62.1794 11.66 61.9261 10.5933 61.9261 9.34V0.96H65.3461ZM79.5077 3.7V6.54H84.0877V9.18H79.5077V12.26H84.6877V15H76.0877V0.96H84.6877V3.7H79.5077Z" fill="#858585"/>
<line y1="20.5" x2="86" y2="20.5" stroke="#858585"/>
</svg>
