<svg width="367" height="46" viewBox="0 0 367 46" fill="none" xmlns="http://www.w3.org/2000/svg">
<rect x="142.5" y="0.5" width="224" height="45" rx="3.5" fill="white" stroke="#F0F0F0"/>
<path d="M334 20L340 26L346 20" stroke="#979797" stroke-width="2" stroke-linecap="round" stroke-linejoin="round"/>
<path d="M4.71404 27.098C3.99537 27.098 3.35137 26.9813 2.78204 26.748C2.21271 26.5147 1.75537 26.1693 1.41004 25.712C1.07404 25.2547 0.896706 24.704 0.878039 24.06H3.42604C3.46337 24.424 3.58937 24.704 3.80404 24.9C4.01871 25.0867 4.29871 25.18 4.64404 25.18C4.99871 25.18 5.27871 25.1007 5.48404 24.942C5.68937 24.774 5.79204 24.5453 5.79204 24.256C5.79204 24.0133 5.70804 23.8127 5.54004 23.654C5.38137 23.4953 5.18071 23.3647 4.93804 23.262C4.70471 23.1593 4.36871 23.0427 3.93004 22.912C3.29537 22.716 2.77737 22.52 2.37604 22.324C1.97471 22.128 1.62937 21.8387 1.34004 21.456C1.05071 21.0733 0.906039 20.574 0.906039 19.958C0.906039 19.0433 1.23737 18.3293 1.90004 17.816C2.56271 17.2933 3.42604 17.032 4.49004 17.032C5.57271 17.032 6.44537 17.2933 7.10804 17.816C7.77071 18.3293 8.12537 19.048 8.17204 19.972H5.58204C5.56337 19.6547 5.44671 19.4073 5.23204 19.23C5.01737 19.0433 4.74204 18.95 4.40604 18.95C4.11671 18.95 3.88337 19.0293 3.70604 19.188C3.52871 19.3373 3.44004 19.5567 3.44004 19.846C3.44004 20.1633 3.58937 20.4107 3.88804 20.588C4.18671 20.7653 4.65337 20.9567 5.28804 21.162C5.92271 21.3767 6.43604 21.582 6.82804 21.778C7.22937 21.974 7.57471 22.2587 7.86404 22.632C8.15337 23.0053 8.29804 23.486 8.29804 24.074C8.29804 24.634 8.15337 25.1427 7.86404 25.6C7.58404 26.0573 7.17337 26.4213 6.63204 26.692C6.09071 26.9627 5.45137 27.098 4.71404 27.098ZM17.1353 22.968C17.1353 23.192 17.1213 23.4253 17.0933 23.668H11.6753C11.7127 24.1533 11.8667 24.5267 12.1373 24.788C12.4173 25.04 12.758 25.166 13.1593 25.166C13.7567 25.166 14.172 24.914 14.4053 24.41H16.9533C16.8227 24.9233 16.5847 25.3853 16.2393 25.796C15.9033 26.2067 15.4787 26.5287 14.9653 26.762C14.452 26.9953 13.878 27.112 13.2433 27.112C12.478 27.112 11.7967 26.9487 11.1993 26.622C10.602 26.2953 10.1353 25.8287 9.79932 25.222C9.46332 24.6153 9.29532 23.906 9.29532 23.094C9.29532 22.282 9.45865 21.5727 9.78532 20.966C10.1213 20.3593 10.588 19.8927 11.1853 19.566C11.7827 19.2393 12.4687 19.076 13.2433 19.076C13.9993 19.076 14.6713 19.2347 15.2593 19.552C15.8473 19.8693 16.3047 20.322 16.6313 20.91C16.9673 21.498 17.1353 22.184 17.1353 22.968ZM14.6853 22.338C14.6853 21.9273 14.5453 21.6007 14.2653 21.358C13.9853 21.1153 13.6353 20.994 13.2153 20.994C12.814 20.994 12.4733 21.1107 12.1933 21.344C11.9227 21.5773 11.7547 21.9087 11.6893 22.338H14.6853ZM20.7923 16.64V27H18.3983V16.64H20.7923ZM29.8912 22.968C29.8912 23.192 29.8772 23.4253 29.8492 23.668H24.4312C24.4685 24.1533 24.6225 24.5267 24.8932 24.788C25.1732 25.04 25.5138 25.166 25.9152 25.166C26.5125 25.166 26.9278 24.914 27.1612 24.41H29.7092C29.5785 24.9233 29.3405 25.3853 28.9952 25.796C28.6592 26.2067 28.2345 26.5287 27.7212 26.762C27.2078 26.9953 26.6338 27.112 25.9992 27.112C25.2338 27.112 24.5525 26.9487 23.9552 26.622C23.3578 26.2953 22.8912 25.8287 22.5552 25.222C22.2192 24.6153 22.0512 23.906 22.0512 23.094C22.0512 22.282 22.2145 21.5727 22.5412 20.966C22.8772 20.3593 23.3438 19.8927 23.9412 19.566C24.5385 19.2393 25.2245 19.076 25.9992 19.076C26.7552 19.076 27.4272 19.2347 28.0152 19.552C28.6032 19.8693 29.0605 20.322 29.3872 20.91C29.7232 21.498 29.8912 22.184 29.8912 22.968ZM27.4412 22.338C27.4412 21.9273 27.3012 21.6007 27.0212 21.358C26.7412 21.1153 26.3912 20.994 25.9712 20.994C25.5698 20.994 25.2292 21.1107 24.9492 21.344C24.6785 21.5773 24.5105 21.9087 24.4452 22.338H27.4412ZM30.6781 23.094C30.6781 22.282 30.8415 21.5727 31.1681 20.966C31.5041 20.3593 31.9661 19.8927 32.5541 19.566C33.1515 19.2393 33.8328 19.076 34.5981 19.076C35.5781 19.076 36.3948 19.3327 37.0481 19.846C37.7108 20.3593 38.1448 21.0827 38.3501 22.016H35.8021C35.5875 21.4187 35.1721 21.12 34.5561 21.12C34.1175 21.12 33.7675 21.2927 33.5061 21.638C33.2448 21.974 33.1141 22.4593 33.1141 23.094C33.1141 23.7287 33.2448 24.2187 33.5061 24.564C33.7675 24.9 34.1175 25.068 34.5561 25.068C35.1721 25.068 35.5875 24.7693 35.8021 24.172H38.3501C38.1448 25.0867 37.7108 25.8053 37.0481 26.328C36.3855 26.8507 35.5688 27.112 34.5981 27.112C33.8328 27.112 33.1515 26.9487 32.5541 26.622C31.9661 26.2953 31.5041 25.8287 31.1681 25.222C30.8415 24.6153 30.6781 23.906 30.6781 23.094ZM43.9847 24.97V27H42.7667C41.8987 27 41.222 26.79 40.7367 26.37C40.2514 25.9407 40.0087 25.2453 40.0087 24.284V21.176H39.0567V19.188H40.0087V17.284H42.4027V19.188H43.9707V21.176H42.4027V24.312C42.4027 24.5453 42.4587 24.7133 42.5707 24.816C42.6827 24.9187 42.8694 24.97 43.1307 24.97H43.9847ZM50.637 17.172V23.052C50.637 23.64 50.7817 24.0927 51.071 24.41C51.3603 24.7273 51.785 24.886 52.345 24.886C52.905 24.886 53.3343 24.7273 53.633 24.41C53.9317 24.0927 54.081 23.64 54.081 23.052V17.172H56.475V23.038C56.475 23.9153 56.2883 24.6573 55.915 25.264C55.5417 25.8707 55.0377 26.328 54.403 26.636C53.7777 26.944 53.0777 27.098 52.303 27.098C51.5283 27.098 50.833 26.9487 50.217 26.65C49.6103 26.342 49.1297 25.8847 48.775 25.278C48.4203 24.662 48.243 23.9153 48.243 23.038V17.172H50.637ZM61.3341 27.112C60.6528 27.112 60.0461 26.9953 59.5141 26.762C58.9821 26.5287 58.5621 26.2113 58.2541 25.81C57.9461 25.3993 57.7734 24.942 57.7361 24.438H60.1021C60.1301 24.7087 60.2561 24.928 60.4801 25.096C60.7041 25.264 60.9794 25.348 61.3061 25.348C61.6048 25.348 61.8334 25.292 61.9921 25.18C62.1601 25.0587 62.2441 24.9047 62.2441 24.718C62.2441 24.494 62.1274 24.3307 61.8941 24.228C61.6608 24.116 61.2828 23.9947 60.7601 23.864C60.2001 23.7333 59.7334 23.598 59.3601 23.458C58.9868 23.3087 58.6648 23.08 58.3941 22.772C58.1234 22.4547 57.9881 22.03 57.9881 21.498C57.9881 21.05 58.1094 20.644 58.3521 20.28C58.6041 19.9067 58.9681 19.6127 59.4441 19.398C59.9294 19.1833 60.5034 19.076 61.1661 19.076C62.1461 19.076 62.9161 19.3187 63.4761 19.804C64.0454 20.2893 64.3721 20.9333 64.4561 21.736H62.2441C62.2068 21.4653 62.0854 21.2507 61.8801 21.092C61.6841 20.9333 61.4228 20.854 61.0961 20.854C60.8161 20.854 60.6014 20.91 60.4521 21.022C60.3028 21.1247 60.2281 21.2693 60.2281 21.456C60.2281 21.68 60.3448 21.848 60.5781 21.96C60.8208 22.072 61.1941 22.184 61.6981 22.296C62.2768 22.4453 62.7481 22.5947 63.1121 22.744C63.4761 22.884 63.7934 23.1173 64.0641 23.444C64.3441 23.7613 64.4888 24.1907 64.4981 24.732C64.4981 25.1893 64.3674 25.6 64.1061 25.964C63.8541 26.3187 63.4854 26.5987 63.0001 26.804C62.5241 27.0093 61.9688 27.112 61.3341 27.112ZM73.3267 22.968C73.3267 23.192 73.3127 23.4253 73.2847 23.668H67.8667C67.9041 24.1533 68.0581 24.5267 68.3287 24.788C68.6087 25.04 68.9494 25.166 69.3507 25.166C69.9481 25.166 70.3634 24.914 70.5967 24.41H73.1447C73.0141 24.9233 72.7761 25.3853 72.4307 25.796C72.0947 26.2067 71.6701 26.5287 71.1567 26.762C70.6434 26.9953 70.0694 27.112 69.4347 27.112C68.6694 27.112 67.9881 26.9487 67.3907 26.622C66.7934 26.2953 66.3267 25.8287 65.9907 25.222C65.6547 24.6153 65.4867 23.906 65.4867 23.094C65.4867 22.282 65.6501 21.5727 65.9767 20.966C66.3127 20.3593 66.7794 19.8927 67.3767 19.566C67.9741 19.2393 68.6601 19.076 69.4347 19.076C70.1907 19.076 70.8627 19.2347 71.4507 19.552C72.0387 19.8693 72.4961 20.322 72.8227 20.91C73.1587 21.498 73.3267 22.184 73.3267 22.968ZM70.8767 22.338C70.8767 21.9273 70.7367 21.6007 70.4567 21.358C70.1767 21.1153 69.8267 20.994 69.4067 20.994C69.0054 20.994 68.6647 21.1107 68.3847 21.344C68.1141 21.5773 67.9461 21.9087 67.8807 22.338H70.8767ZM76.9837 20.49C77.2637 20.0607 77.6137 19.7247 78.0337 19.482C78.4537 19.23 78.9203 19.104 79.4337 19.104V21.638H78.7757C78.1783 21.638 77.7303 21.7687 77.4317 22.03C77.133 22.282 76.9837 22.73 76.9837 23.374V27H74.5897V19.188H76.9837V20.49Z" fill="#858585"/>
</svg>
