<svg width="104" height="21" viewBox="0 0 104 21" fill="none" xmlns="http://www.w3.org/2000/svg">
<path d="M6.42547 15.14C5.3988 15.14 4.4788 14.9733 3.66547 14.64C2.85214 14.3067 2.1988 13.8133 1.70547 13.16C1.22547 12.5067 0.972135 11.72 0.945469 10.8H4.58547C4.6388 11.32 4.8188 11.72 5.12547 12C5.43214 12.2667 5.83214 12.4 6.32547 12.4C6.83214 12.4 7.23214 12.2867 7.52547 12.06C7.8188 11.82 7.96547 11.4933 7.96547 11.08C7.96547 10.7333 7.84547 10.4467 7.60547 10.22C7.3788 9.99333 7.09214 9.80667 6.74547 9.66C6.41214 9.51333 5.93214 9.34667 5.30547 9.16C4.3988 8.88 3.6588 8.6 3.08547 8.32C2.51214 8.04 2.0188 7.62667 1.60547 7.08C1.19214 6.53333 0.985469 5.82 0.985469 4.94C0.985469 3.63333 1.4588 2.61333 2.40547 1.88C3.35214 1.13333 4.58547 0.76 6.10547 0.76C7.65214 0.76 8.8988 1.13333 9.84547 1.88C10.7921 2.61333 11.2988 3.64 11.3655 4.96H7.66547C7.6388 4.50667 7.47214 4.15333 7.16547 3.9C6.8588 3.63333 6.46547 3.5 5.98547 3.5C5.57214 3.5 5.2388 3.61333 4.98547 3.84C4.73214 4.05333 4.60547 4.36667 4.60547 4.78C4.60547 5.23333 4.8188 5.58667 5.24547 5.84C5.67214 6.09333 6.3388 6.36667 7.24547 6.66C8.15214 6.96667 8.88547 7.26 9.44547 7.54C10.0188 7.82 10.5121 8.22667 10.9255 8.76C11.3388 9.29333 11.5455 9.98 11.5455 10.82C11.5455 11.62 11.3388 12.3467 10.9255 13C10.5255 13.6533 9.9388 14.1733 9.16547 14.56C8.39214 14.9467 7.4788 15.14 6.42547 15.14ZM25.8102 0.96V15H22.3902V9.22H17.0702V15H13.6502V0.96H17.0702V6.46H22.3902V0.96H25.8102ZM34.9191 15.14C33.5991 15.14 32.3857 14.8333 31.2791 14.22C30.1857 13.6067 29.3124 12.7533 28.6591 11.66C28.0191 10.5533 27.6991 9.31333 27.6991 7.94C27.6991 6.56667 28.0191 5.33333 28.6591 4.24C29.3124 3.14667 30.1857 2.29333 31.2791 1.68C32.3857 1.06667 33.5991 0.76 34.9191 0.76C36.2391 0.76 37.4457 1.06667 38.5391 1.68C39.6457 2.29333 40.5124 3.14667 41.1391 4.24C41.7791 5.33333 42.0991 6.56667 42.0991 7.94C42.0991 9.31333 41.7791 10.5533 41.1391 11.66C40.4991 12.7533 39.6324 13.6067 38.5391 14.22C37.4457 14.8333 36.2391 15.14 34.9191 15.14ZM34.9191 12.02C36.0391 12.02 36.9324 11.6467 37.5991 10.9C38.2791 10.1533 38.6191 9.16667 38.6191 7.94C38.6191 6.7 38.2791 5.71333 37.5991 4.98C36.9324 4.23333 36.0391 3.86 34.9191 3.86C33.7857 3.86 32.8791 4.22667 32.1991 4.96C31.5324 5.69333 31.1991 6.68667 31.1991 7.94C31.1991 9.18 31.5324 10.1733 32.1991 10.92C32.8791 11.6533 33.7857 12.02 34.9191 12.02ZM54.7017 5.48C54.7017 6.29333 54.5151 7.04 54.1417 7.72C53.7684 8.38667 53.1951 8.92667 52.4217 9.34C51.6484 9.75333 50.6884 9.96 49.5417 9.96H47.4217V15H44.0017V0.96H49.5417C50.6617 0.96 51.6084 1.15333 52.3817 1.54C53.1551 1.92667 53.7351 2.46 54.1217 3.14C54.5084 3.82 54.7017 4.6 54.7017 5.48ZM49.2817 7.24C49.9351 7.24 50.4217 7.08667 50.7417 6.78C51.0617 6.47333 51.2217 6.04 51.2217 5.48C51.2217 4.92 51.0617 4.48667 50.7417 4.18C50.4217 3.87333 49.9351 3.72 49.2817 3.72H47.4217V7.24H49.2817ZM67.1822 5.48C67.1822 6.29333 66.9955 7.04 66.6222 7.72C66.2489 8.38667 65.6755 8.92667 64.9022 9.34C64.1289 9.75333 63.1689 9.96 62.0222 9.96H59.9022V15H56.4822V0.96H62.0222C63.1422 0.96 64.0889 1.15333 64.8622 1.54C65.6355 1.92667 66.2155 2.46 66.6022 3.14C66.9889 3.82 67.1822 4.6 67.1822 5.48ZM61.7622 7.24C62.4155 7.24 62.9022 7.08667 63.2222 6.78C63.5422 6.47333 63.7022 6.04 63.7022 5.48C63.7022 4.92 63.5422 4.48667 63.2222 4.18C62.9022 3.87333 62.4155 3.72 61.7622 3.72H59.9022V7.24H61.7622ZM72.3827 0.96V15H68.9627V0.96H72.3827ZM87.4211 15H84.0011L78.2811 6.34V15H74.8611V0.96H78.2811L84.0011 9.66V0.96H87.4211V15ZM99.2202 5.4C98.9668 4.93333 98.6002 4.58 98.1202 4.34C97.6535 4.08667 97.1002 3.96 96.4602 3.96C95.3535 3.96 94.4668 4.32667 93.8002 5.06C93.1335 5.78 92.8002 6.74667 92.8002 7.96C92.8002 9.25333 93.1468 10.2667 93.8402 11C94.5468 11.72 95.5135 12.08 96.7402 12.08C97.5802 12.08 98.2868 11.8667 98.8602 11.44C99.4468 11.0133 99.8735 10.4 100.14 9.6H95.8002V7.08H103.24V10.26C102.987 11.1133 102.553 11.9067 101.94 12.64C101.34 13.3733 100.573 13.9667 99.6402 14.42C98.7068 14.8733 97.6535 15.1 96.4802 15.1C95.0935 15.1 93.8535 14.8 92.7602 14.2C91.6802 13.5867 90.8335 12.74 90.2202 11.66C89.6202 10.58 89.3202 9.34667 89.3202 7.96C89.3202 6.57333 89.6202 5.34 90.2202 4.26C90.8335 3.16667 91.6802 2.32 92.7602 1.72C93.8402 1.10667 95.0735 0.799999 96.4602 0.799999C98.1402 0.799999 99.5535 1.20667 100.7 2.02C101.86 2.83333 102.627 3.96 103 5.4H99.2202Z" fill="#858585"/>
<line x1="2" y1="20.5" x2="104" y2="20.5" stroke="#858585"/>
</svg>
